<svg xmlns="http://www.w3.org/2000/svg" xmlns:xlink="http://www.w3.org/1999/xlink" width="36" height="36" version="1.1" viewBox="0 0 36 36"><title>36</title><desc>Created with Sketch.</desc><defs><linearGradient id="linearGradient-1" x1="85.355%" x2="14.645%" y1="14.645%" y2="85.355%"><stop offset="0%" stop-color="#FF2D55"/><stop offset="100%" stop-color="#FFBC5B"/></linearGradient><linearGradient id="linearGradient-2" x1="49.966%" x2="49.966%" y1="0%" y2="100%"><stop offset="0%" stop-color="#A524B3"/><stop offset="100%" stop-color="#FF2D55"/></linearGradient><linearGradient id="linearGradient-3" x1="49.966%" x2="49.966%" y1="0%" y2="100%"><stop offset="0%" stop-color="#A524B3"/><stop offset="100%" stop-color="#FF2D55"/></linearGradient></defs><g id="ui-kit" fill="none" fill-rule="evenodd" stroke="none" stroke-width="1"><g id="logo" transform="translate(-824.000000, -254.000000)"><g id="color" transform="translate(128.000000, 128.000000)"><g id="36" transform="translate(696.000000, 126.000000)"><circle id="world" cx="18" cy="18" r="18" fill="url(#linearGradient-1)"/><g id="big-pyramid" transform="translate(1.440000, 11.700000)"><polygon id="shadow" fill="url(#linearGradient-2)" points="11.313 0 11.313 13.5 22.563 13.5"/><polygon id="light" fill="#FFF" points=".063 13.5 11.313 13.5 11.313 0"/></g><path id="end" fill="#FF2D55" d="M7.2,32.4 C10.206,34.659 13.95,36 18,36 C22.05,36 25.794,34.659 28.8,32.4 L7.2,32.4 Z"/><path id="horizon" fill="#FC9965" d="M3.6,28.8 C4.626,30.159 5.841,31.374 7.2,32.4 L28.8,32.4 C30.159,31.374 31.374,30.159 32.4,28.8 L3.6,28.8 Z"/><path id="ground" fill="#FFBC5B" d="M24.147,25.2 L1.503,25.2 C2.061,26.487 2.772,27.693 3.6,28.8 L24.156,28.8 L24.156,25.2 L24.147,25.2 Z"/><g id="small-pyramid" transform="translate(15.840000, 18.900000)"><polygon id="shadow" fill="url(#linearGradient-3)" points="8.307 0 8.307 9.9 16.56 9.9"/><polygon id="light" fill="#FFF" points=".063 9.9 8.307 9.9 8.307 0"/></g><circle id="big-moon" cx="24.147" cy="11.7" r="4.5" fill="#FFC95B"/><circle id="small-moon" cx="12.753" cy="6.75" r="2.25" fill="#FFC95B"/></g></g></g></g></svg>